<svg width="120" height="19" viewBox="0 0 120 19" fill="none" xmlns="http://www.w3.org/2000/svg">
<path d="M10 0L12.582 6.953L20 7.257L14.178 11.859L16.18 19L10 14.89L3.82 19L5.822 11.86L0 7.256L7.418 6.952" fill="#FF8E5E"/>
<path d="M35 0L37.582 6.953L45 7.257L39.178 11.859L41.18 19L35 14.89L28.82 19L30.822 11.86L25 7.256L32.418 6.952" fill="#FF8E5E"/>
<path d="M60 0L62.582 6.953L70 7.257L64.178 11.859L66.18 19L60 14.89L53.82 19L55.822 11.86L50 7.256L57.418 6.952" fill="#FF8E5E"/>
<path d="M85 0L87.582 6.953L95 7.257L89.178 11.859L91.18 19L85 14.89L78.82 19L80.822 11.86L75 7.256L82.418 6.952" fill="#FF8E5E"/>
<path d="M110 0L112.582 6.953L120 7.257L114.178 11.859L116.18 19L110 14.89L103.82 19L105.822 11.86L100 7.256L107.418 6.952" fill="#FF8E5E"/>
</svg>
